HIERARCHY
ROOT Hips
{
	OFFSET -3.958830 18.904000 13.208200
	CHANNELS 6 Xposition Yposition Zposition Zrotation Yrotation Xrotation 
	JOINT LHipJoint
	{
		OFFSET 0.000000 0.000000 0.000000
		CHANNELS 3 Zrotation Yrotation Xrotation
		JOINT LeftUpLeg
		{
			OFFSET 1.800000 -1.400000 0.085000
			CHANNELS 3 Zrotation Yrotation Xrotation
			JOINT LeftLeg
			{
				OFFSET 2.215000 -6.000000 0.000000
				CHANNELS 3 Zrotation Yrotation Xrotation
				JOINT LeftFoot
				{
					OFFSET 2.500000 -6.900000 0.000000
					CHANNELS 3 Zrotation Yrotation Xrotation
					JOINT LeftToeBase
					{
						OFFSET 0.200000 -0.500000 1.950000
						CHANNELS 3 Zrotation Yrotation Xrotation
						End Site
						{
							OFFSET 0.000000 0.000000 0.000000
						}
					}
				}
			}
		}
	}
	JOINT RHipJoint
	{
		OFFSET 0.000000 0.000000 0.000000
		CHANNELS 3 Zrotation Yrotation Xrotation
		JOINT RightUpLeg
		{
			OFFSET -1.800000 -1.400000 0.085000
			CHANNELS 3 Zrotation Yrotation Xrotation
			JOINT RightLeg
			{
				OFFSET -2.215000 -6.000000 0.000000
				CHANNELS 3 Zrotation Yrotation Xrotation
				JOINT RightFoot
				{
					OFFSET -2.500000 -6.900000 0.000000
					CHANNELS 3 Zrotation Yrotation Xrotation
					JOINT RightToeBase
					{
						OFFSET -0.200000 -0.500000 1.950000
						CHANNELS 3 Zrotation Yrotation Xrotation
						End Site
						{
							OFFSET 0.000000 0.000000 0.000000
						}
					}
				}
			}
		}
	}
	JOINT LowerBack
	{
		OFFSET 0.000000 0.000000 0.000000
		CHANNELS 3 Zrotation Yrotation Xrotation
		JOINT Spine
		{
			OFFSET -0.087000 1.940000 -0.288900
			CHANNELS 3 Zrotation Yrotation Xrotation
			JOINT Spine1
			{
				OFFSET 0.000000 1.950000 0.060000
				CHANNELS 3 Zrotation Yrotation Xrotation
				JOINT Neck
				{
					OFFSET 0.000000 0.000000 0.000000
					CHANNELS 3 Zrotation Yrotation Xrotation
					JOINT Neck1
					{
						OFFSET 0.000000 1.600000 0.340000
						CHANNELS 3 Zrotation Yrotation Xrotation
						JOINT Head
						{
							OFFSET 0.000000 1.667000 -0.240000
							CHANNELS 3 Zrotation Yrotation Xrotation
							End Site
							{
								OFFSET 0.000000 0.000000 0.000000
							}
						}
					}
				}
				JOINT LeftShoulder
				{
					OFFSET 0.000000 0.000000 0.000000
					CHANNELS 3 Zrotation Yrotation Xrotation
					JOINT LeftArm
					{
						OFFSET 2.700000 1.550000 -0.730000
						CHANNELS 3 Zrotation Yrotation Xrotation
						JOINT LeftForeArm
						{
							OFFSET 5.450000 0.000000 0.000000
							CHANNELS 3 Zrotation Yrotation Xrotation
							JOINT LeftHand
							{
								OFFSET 3.450000 0.000000 0.000000
								CHANNELS 3 Zrotation Yrotation Xrotation
								JOINT LeftHandIndex1
								{
									OFFSET 0.750000 0.000000 0.000000
									CHANNELS 3 Zrotation Yrotation Xrotation
									End Site
									{
										OFFSET 0.000000 0.000000 0.000000
									}
								}
							}
						}
					}
				}
				JOINT RightShoulder
				{
					OFFSET 0.000000 0.000000 0.000000
					CHANNELS 3 Zrotation Yrotation Xrotation
					JOINT RightArm
					{
						OFFSET -2.700000 1.550000 -0.730000
						CHANNELS 3 Zrotation Yrotation Xrotation
						JOINT RightForeArm
						{
							OFFSET -5.450000 0.000000 0.000000
							CHANNELS 3 Zrotation Yrotation Xrotation
							JOINT RightHand
							{
								OFFSET -3.450000 0.000000 0.000000
								CHANNELS 3 Zrotation Yrotation Xrotation
								JOINT RightHandIndex1
								{
									OFFSET -0.750000 0.000000 0.000000
									CHANNELS 3 Zrotation Yrotation Xrotation
									End Site
									{
										OFFSET 0.000000 0.000000 0.000000
									}
								}
							}
						}
					}
				}
			}
		}
	}
}
MOTION
Frames: 12
Frame Time: 0.016667
0.855530 17.262050 0.360750 11.595761 39.814823 -12.814743 -15.441251 11.744235 4.133990 -1.646612 -10.507367 -13.026470 -22.846608 19.970229 47.484579 1.356894 11.328845 0.645329 0.333590 0.373770 0.187050 18.373480 -8.951130 3.893838 10.705113 8.568147 -42.278568 -17.888127 1.757456 51.171766 -0.943766 -6.616742 1.831193 0.320300 0.000010 0.052650 -3.933753 -2.330768 -9.117312 6.579610 -5.789055 39.018202 -1.648764 -7.359645 11.425904 -3.657473 0.192569 -10.305000 -6.502877 -6.795208 46.446459 2.828630 -6.349760 -14.860970 0.874273 -36.503683 -0.031644 26.943912 -41.556092 -7.107549 114.791080 -61.373858 -79.608389 -3.608588 1.778211 0.310660 -0.071900 0.151260 0.029780 6.829359 34.146488 7.121788 25.516877 33.347328 -2.196839 95.751779 71.898160 57.594016 3.255985 -0.313075 -0.088590 0.287860 0.036210 -0.065110 
0.813250 17.289910 0.322960 9.311632 39.672541 -14.979531 -15.432513 11.616462 3.928143 0.976269 -10.249432 -13.334310 -22.744528 20.421783 47.809454 1.351344 11.437967 0.589168 0.352330 0.391450 0.205030 18.429872 -8.649397 4.240438 9.884447 10.505781 -45.127292 -17.916179 1.318430 63.174391 -1.429353 -8.704361 1.177147 0.320860 -0.027500 0.047910 -3.986856 -2.390869 -9.269502 8.266613 -6.597297 41.512094 -1.627557 -7.852393 10.479201 -3.414117 -0.077318 -10.303940 -7.056299 -6.667851 47.056540 3.757300 -6.436870 -16.258540 0.541012 -36.738437 -0.097336 28.890075 -39.849925 -8.299499 115.147598 -61.572259 -80.606652 -3.558575 1.830029 0.351830 -0.110290 0.185130 0.029220 6.757603 34.434573 6.808353 23.420467 32.709677 -3.410825 97.656978 71.585916 59.264824 3.263017 -0.250261 -0.085360 0.296220 0.026840 -0.069740 
0.767490 17.321150 0.291440 7.662709 39.935892 -16.541327 -15.454011 11.629893 3.839597 3.303459 -10.197297 -14.572677 -21.933794 20.576594 48.687305 1.360057 11.507081 0.548486 0.356830 0.400400 0.208200 18.424886 -8.456978 4.397808 8.150518 11.270905 -47.372712 -19.811599 1.559243 74.427420 -1.931693 -10.744232 0.600862 0.306210 -0.047250 0.042030 -3.889942 -2.685336 -9.375233 8.680490 -6.966005 43.692611 -0.857412 -8.289597 9.478782 -3.253735 0.041781 -10.826322 -7.112187 -6.569899 48.347062 4.619060 -6.404070 -16.356130 0.045257 -37.862540 -0.144803 29.069938 -38.523682 -8.815921 114.286383 -62.436345 -80.862096 -3.502735 1.778001 0.370200 -0.137590 0.210890 0.032890 6.983749 35.366740 7.082218 21.146977 31.668799 -4.486693 95.044437 71.323177 56.771276 3.188494 -0.444703 -0.071510 0.292000 0.014010 -0.064060 
0.743150 17.339510 0.272340 5.212640 38.784738 -17.782545 -15.416079 11.418311 3.690484 6.173832 -9.743810 -15.035852 -23.245935 21.064273 47.145511 1.341188 11.451002 0.544691 0.357500 0.402590 0.204890 18.503732 -8.194115 4.715208 6.255422 12.770310 -50.848496 -18.411034 -1.179373 85.512810 -2.353846 -12.424836 0.159909 0.294490 -0.056470 0.037280 -4.022162 -2.577310 -9.557587 11.208737 -7.862392 44.824894 -1.538269 -8.544645 8.175370 -2.983382 -0.225154 -11.280928 -7.802028 -6.088215 49.727523 5.776680 -6.299560 -16.423750 -0.536956 -38.779928 0.042858 28.924373 -37.455848 -8.926689 115.933081 -63.110739 -84.808845 -3.494937 1.923485 0.390610 -0.160280 0.229230 0.034760 6.975546 36.218154 6.897846 20.973676 31.465540 -5.073270 94.923726 67.677102 53.460073 2.999771 -0.857661 -0.065700 0.291610 0.009820 -0.058880 
0.730600 17.317350 0.266690 2.316844 37.903220 -18.426420 -15.365864 11.040445 3.569465 9.257477 -9.267387 -15.792719 -25.580306 21.869008 44.999667 1.331834 11.462627 0.527640 0.351230 0.402400 0.187380 18.619922 -7.862317 5.062754 3.298217 14.339683 -55.277140 -15.961151 -6.446097 96.367462 -2.739434 -14.029360 -0.226767 0.295740 -0.036480 0.037390 -4.222264 -2.317428 -9.765896 14.961550 -8.868771 43.995793 -2.690166 -8.637637 7.291906 -2.646070 -0.239865 -10.993394 -7.785336 -6.355593 49.713314 6.131960 -6.659040 -15.888810 -0.718618 -38.464497 -0.059183 29.241841 -37.730052 -9.105560 115.493912 -63.987389 -85.287475 -3.490644 1.888217 0.372820 -0.146950 0.215110 0.038760 6.396446 35.697649 6.314850 21.516917 31.671099 -4.854307 96.695170 65.182242 52.710058 2.912967 -1.036235 -0.063900 0.294050 0.014910 -0.046540 
0.726240 17.303880 0.267650 0.341168 37.064733 -18.835271 -15.326624 10.793186 3.585795 11.829159 -8.940814 -16.413842 -28.127099 22.544053 42.820746 1.312299 11.468957 0.505598 0.363110 0.414730 0.195170 18.682828 -7.729611 5.149338 0.130153 14.388766 -57.286912 -15.163953 -11.179869 104.816126 -3.075700 -15.259974 -0.503940 0.306790 -0.042080 0.036220 -4.328763 -2.142230 -9.880473 17.524752 -9.482070 43.443308 -3.613000 -8.735333 6.767552 -2.337822 -0.173594 -10.848003 -7.723628 -6.647712 49.925114 6.623630 -6.913450 -16.546420 -1.087477 -38.388588 -0.188888 29.161966 -38.019422 -9.279969 114.664252 -64.697877 -85.044291 -3.463543 1.800276 0.390020 -0.158480 0.226260 0.039390 6.078785 35.415711 6.096233 22.262637 31.685483 -4.891128 98.042424 63.411799 52.028628 2.853050 -1.140460 -0.068140 0.304610 0.013820 -0.049160 
0.731420 17.296490 0.275830 -1.259480 35.925880 -19.042783 -15.297677 10.653401 3.670709 14.224285 -8.564268 -17.204470 -30.193993 23.036607 40.968408 1.298897 11.462674 0.487156 0.360610 0.405340 0.201000 18.712990 -7.685422 5.125813 -2.733838 13.747435 -57.711554 -16.558864 -13.799160 111.999578 -3.327496 -16.094180 -0.669960 0.298680 -0.053180 0.036740 -4.359231 -2.099993 -9.947485 19.372326 -9.859833 42.870903 -4.157029 -8.879895 6.352685 -2.093544 -0.248810 -11.199665 -8.051399 -6.631702 50.501306 6.653980 -6.961030 -16.571830 -1.793332 -38.755090 -0.070476 28.373726 -37.767817 -9.069579 116.421913 -65.059114 -88.408577 -3.486249 1.956618 0.406610 -0.168560 0.235290 0.033180 6.203305 35.708262 6.374453 23.059671 31.260416 -5.168391 98.130788 62.090604 50.636287 2.805495 -1.226760 -0.070160 0.300700 0.015580 -0.055910 
0.727200 17.289640 0.285810 -2.052340 35.828005 -19.037540 -15.281883 10.594065 3.832553 15.379436 -8.638739 -18.342476 -31.193382 23.510525 40.819564 1.317551 11.576524 0.440889 0.368390 0.414860 0.212250 18.706907 -7.893355 4.866244 -4.748927 12.130188 -55.636299 -19.765082 -12.387838 115.795928 -3.400919 -16.219944 -0.683973 0.304580 -0.061630 0.036830 -4.394408 -1.950955 -9.917137 20.260494 -9.649984 42.105630 -4.505307 -8.971032 6.617530 -1.991462 0.388977 -11.262987 -6.871570 -7.283822 51.001773 6.699590 -6.939870 -16.492180 -2.036184 -38.769678 -0.138002 28.897724 -37.586391 -9.179784 118.424726 -65.347525 -91.456840 -3.500334 2.136412 0.409060 -0.169950 0.241940 0.031690 6.239406 35.178844 6.666846 24.241033 30.735138 -5.295467 98.081850 61.672170 49.897988 2.792294 -1.259728 -0.068470 0.298600 0.009790 -0.060790 
0.715990 17.270540 0.276500 -3.116985 34.771941 -18.273893 -15.264014 10.508337 4.071141 17.222043 -8.499659 -20.349624 -32.626005 24.062404 40.209578 1.326551 11.677411 0.394598 0.367160 0.414380 0.212160 18.714479 -8.048096 4.609249 -7.319685 10.620926 -53.582284 -23.045162 -9.961763 118.399442 -3.428090 -16.195557 -0.665419 0.302820 -0.062280 0.037340 -4.392410 -1.900877 -9.890657 21.475160 -9.375657 40.830205 -4.353051 -8.837841 6.600059 -2.011553 0.190328 -11.325564 -7.300694 -7.342890 50.908489 6.550680 -7.131560 -16.613850 -1.977110 -38.228167 -0.061050 28.073670 -36.970658 -9.043068 119.574708 -64.635955 -92.412412 -3.509581 2.236381 0.409800 -0.170350 0.242520 0.028950 6.180252 34.867464 6.853371 25.132326 30.450462 -5.275555 96.825374 61.455280 48.592550 2.773607 -1.288529 -0.067220 0.299050 0.011620 -0.059870 
0.691250 17.244000 0.287290 -3.260461 34.048092 -16.790428 -15.251432 10.508482 4.376702 18.279158 -8.604546 -22.238946 -34.098350 24.368837 39.501399 1.347256 11.730130 0.376532 0.358590 0.408390 0.202140 18.693937 -8.443792 4.133473 -9.703800 8.348168 -50.087889 -26.322004 -5.010483 116.650377 -3.365617 -15.975853 -0.615361 0.301460 -0.049880 0.038550 -4.388086 -1.751615 -9.786222 21.087008 -8.166581 38.830232 -3.600750 -8.241469 7.103706 -2.454773 0.801014 -11.358521 -6.088445 -7.731967 50.932305 6.520690 -6.909270 -15.469550 -1.738742 -37.527156 -0.227898 28.099064 -37.343862 -8.655194 117.498070 -64.666549 -89.201462 -3.497562 2.078437 0.385200 -0.150620 0.225950 0.031360 6.834052 33.817964 7.436864 27.800571 29.708786 -4.943673 94.148109 61.309733 46.265635 2.749685 -1.348043 -0.065300 0.287850 0.011410 -0.056900 
0.635430 17.205250 0.311550 -2.919634 32.867528 -14.965354 -15.250231 10.553064 4.695902 19.338928 -8.711798 -23.783497 -35.856436 24.361267 38.120033 1.351769 11.668741 0.392292 0.363670 0.424120 0.199230 18.654916 -8.861586 3.642966 -11.695743 6.290393 -46.593759 -28.540147 -0.911418 113.031796 -3.324986 -15.819958 -0.579706 0.304190 -0.045160 0.034370 -4.328207 -1.611349 -9.688881 19.485443 -6.490728 37.315723 -2.506854 -7.074447 7.251727 -3.027202 1.369579 -11.497728 -4.915783 -8.178534 50.987144 7.225910 -6.865510 -15.459130 -1.083923 -36.896927 -0.381695 28.036475 -36.963433 -8.534253 113.796173 -64.500854 -83.628039 -3.421904 1.796154 0.378980 -0.150570 0.229200 0.038990 7.315719 33.226833 7.898144 30.398731 29.257789 -4.776623 93.380324 59.800017 44.178216 2.707922 -1.430404 -0.059030 0.292270 0.003230 -0.048830 
0.561990 17.166510 0.337920 -2.344411 30.597417 -12.890657 -15.271782 10.580258 5.055057 20.910700 -8.625754 -25.255624 -38.473426 24.421349 36.003827 1.351057 11.607709 0.402188 0.369440 0.431680 0.207550 18.605145 -9.189717 3.199663 -12.894150 4.859841 -43.686091 -30.189771 2.841335 107.353793 -3.263922 -15.614609 -0.547496 0.305850 -0.049070 0.033520 -4.173303 -1.527793 -9.635595 16.766760 -4.265975 35.981719 -0.698020 -5.226513 7.288833 -3.832336 2.015339 -11.657037 -3.628457 -8.724489 51.241384 7.935900 -6.722410 -15.648790 -0.236966 -35.888929 -0.972675 27.718806 -36.563748 -8.551322 108.952204 -65.086248 -77.055693 -3.283084 1.395637 0.390530 -0.158010 0.241050 0.040040 8.093471 32.447516 8.819458 34.160484 27.978335 -4.851358 90.830468 58.849466 41.292536 2.666432 -1.490979 -0.059620 0.296470 -0.001840 -0.050820 
